<svg xmlns="http://www.w3.org/2000/svg" width="256" height="256" viewBox="0 0 256 256" version="1.1">
  <rect width="256" height="256" rx="40" ry="40" fill="#ffffff"/>
  <path fill="#27ae60" d="M96 32c-8 0-16 3-22 9l-33 33c-6 6-9 14-9 22v66c0 8 3 16 9 22l33 33c6 6 14 9 22 9h66c8 0 16-3 22-9l33-33c6-6 9-14 9-22V96c0-8-3-16-9-22l-33-33c-6-6-14-9-22-9H96z"/>
  <path fill="#0e5c89" d="M120 94c22-18 55-32 84-22-22 4-42 18-57 32-22 19-38 43-60 61-11 9-21 16-35 20 14-17 28-34 42-52 8-10 15-19 26-28z"/>
  <path fill="#ffffff" d="M116 150c18-26 40-51 62-64 10 2 20 6 28 11-27 11-48 31-69 54-8 9-17 18-29 23-4-8-2-16 8-24z"/>
</svg>
